<svg id="Capa_1" enable-background="new 0 0 512 512" height="512" viewBox="0 0 512 512" width="512" xmlns="http://www.w3.org/2000/svg"><path d="m15 110c8.284 0 15-6.716 15-15v-65h65c8.284 0 15-6.716 15-15s-6.716-15-15-15h-80c-8.284 0-15 6.716-15 15v80c0 8.284 6.716 15 15 15z" fill="#ff858f"/><path d="m95 482h-65v-65c0-8.284-6.716-15-15-15s-15 6.716-15 15v80c0 8.284 6.716 15 15 15h80c8.284 0 15-6.716 15-15s-6.716-15-15-15z" fill="#ff858f"/><g fill="#6e7382"><path d="m196 301h-120c-8.284 0-15 6.716-15 15v120c0 8.284 6.716 15 15 15h120c8.284 0 15-6.716 15-15v-120c0-8.284-6.716-15-15-15zm-15 120h-90v-90h90z"/><path d="m196 61h-120c-8.284 0-15 6.716-15 15v120c0 8.284 6.716 15 15 15h120c8.284 0 15-6.716 15-15v-120c0-8.284-6.716-15-15-15zm-15 120h-90v-90h90z"/><path d="m256 211c8.284 0 15-6.716 15-15v-120c0-8.284-6.716-15-15-15s-15 6.716-15 15v120c0 8.284 6.716 15 15 15z"/><path d="m361 256c0-8.284-6.716-15-15-15h-90c-8.284 0-15 6.716-15 15v180c0 8.284 6.716 15 15 15s15-6.716 15-15v-165h75c8.284 0 15-6.716 15-15z"/><path d="m76 271h30c8.284 0 15-6.716 15-15s-6.716-15-15-15h-30c-8.284 0-15 6.716-15 15s6.716 15 15 15z"/><circle cx="136" cy="136" r="15"/><circle cx="136" cy="376" r="15"/><path d="m196 241h-30c-8.284 0-15 6.716-15 15s6.716 15 15 15h30c8.284 0 15-6.716 15-15s-6.716-15-15-15z"/></g><path d="m497 0h-80c-8.284 0-15 6.716-15 15s6.716 15 15 15h65v65c0 8.284 6.716 15 15 15s15-6.716 15-15v-80c0-8.284-6.716-15-15-15z" fill="#fa575a"/><path d="m497 402c-8.284 0-15 6.716-15 15v65h-65c-8.284 0-15 6.716-15 15s6.716 15 15 15h80c8.284 0 15-6.716 15-15v-80c0-8.284-6.716-15-15-15z" fill="#fa575a"/><path d="m316 211h120c8.284 0 15-6.716 15-15v-120c0-8.284-6.716-15-15-15h-120c-8.284 0-15 6.716-15 15v120c0 8.284 6.716 15 15 15zm15-120h90v90h-90z" fill="#4f5561"/><path d="m451 436v-120c0-8.284-6.716-15-15-15s-15 6.716-15 15v105h-105c-8.284 0-15 6.716-15 15s6.716 15 15 15h120c8.284 0 15-6.716 15-15z" fill="#4f5561"/><path d="m271 196v-120c0-8.284-6.716-15-15-15v150c8.284 0 15-6.716 15-15z" fill="#4f5561"/><path d="m271 436v-165h75c8.284 0 15-6.716 15-15s-6.716-15-15-15h-90v210c8.284 0 15-6.716 15-15z" fill="#4f5561"/><path d="m361 316v60c0 8.284 6.716 15 15 15s15-6.716 15-15v-60c0-8.284-6.716-15-15-15s-15 6.716-15 15z" fill="#4f5561"/><path d="m301 316v60c0 8.284 6.716 15 15 15s15-6.716 15-15v-60c0-8.284-6.716-15-15-15s-15 6.716-15 15z" fill="#4f5561"/><path d="m436 241h-30c-8.284 0-15 6.716-15 15s6.716 15 15 15h30c8.284 0 15-6.716 15-15s-6.716-15-15-15z" fill="#4f5561"/><circle cx="376" cy="136" fill="#4f5561" r="15"/></svg>