<?xml version="1.0" encoding="iso-8859-1"?>
<!-- Generator: Adobe Illustrator 19.0.0, SVG Export Plug-In . SVG Version: 6.00 Build 0)  -->
<svg version="1.1" id="Capa_1" xmlns="http://www.w3.org/2000/svg" xmlns:xlink="http://www.w3.org/1999/xlink" x="0px" y="0px"
	 viewBox="0 0 512.001 512.001" style="enable-background:new 0 0 512.001 512.001;" xml:space="preserve">
<linearGradient id="SVGID_1_" gradientUnits="userSpaceOnUse" x1="66.9391" y1="231.9461" x2="174.9391" y2="233.9461" gradientTransform="matrix(1.0039 0 0 -1.0039 0.1921 516.5604)">
	<stop  offset="0" style="stop-color:#E7F1FD"/>
	<stop  offset="1" style="stop-color:#B2C7D8"/>
</linearGradient>
<path style="fill:url(#SVGID_1_);" d="M16.192,424.477l98.856-32.904c5.009-1.671,10.26-2.504,15.429-2.503l22.751-247.546
	c-4.239,0-8.516,0.562-12.595,1.679l-88.854,24.359c-3.917,1.099-6.769,3.538-7.267,6.25l-44.37,241.38
	C-1.201,422.493,7.3,427.437,16.192,424.477z"/>
<linearGradient id="SVGID_2_" gradientUnits="userSpaceOnUse" x1="90.5681" y1="284.923" x2="105.3181" y2="169.233" gradientTransform="matrix(1.0039 0 0 -1.0039 0.1921 516.5604)">
	<stop  offset="0" style="stop-color:#B2C7D8;stop-opacity:0"/>
	<stop  offset="1" style="stop-color:#879FAF"/>
</linearGradient>
<path style="fill:url(#SVGID_2_);" d="M138.526,254.042c1.456,0,2.906,0.065,4.344,0.182l10.358-112.701
	c-4.239,0-8.516,0.562-12.595,1.679L51.78,167.561c-3.917,1.099-6.769,3.538-7.267,6.25L24.385,283.306l99.744-27.345
	C128.791,254.685,133.681,254.042,138.526,254.042z"/>
<linearGradient id="SVGID_3_" gradientUnits="userSpaceOnUse" x1="176.3896" y1="234.4864" x2="276.3896" y2="221.4864" gradientTransform="matrix(1.0039 0 0 -1.0039 0.1921 516.5604)">
	<stop  offset="0" style="stop-color:#E7F1FD"/>
	<stop  offset="1" style="stop-color:#B2C7D8"/>
</linearGradient>
<path style="fill:url(#SVGID_3_);" d="M243.31,165.662l-77.796-22.46c-3.873-1.116-8.055-1.679-12.286-1.679l-22.751,247.547
	c5.167,0,10.264,0.833,14.969,2.503l94.981,33.676c4.953,1.753,10.26,2.639,15.574,2.639V167.412
	C251.67,167.413,247.344,166.829,243.31,165.662z"/>
<linearGradient id="SVGID_4_" gradientUnits="userSpaceOnUse" x1="508.3489" y1="231.1634" x2="355.7189" y2="233.1634" gradientTransform="matrix(1.0039 0 0 -1.0039 0.1921 516.5604)">
	<stop  offset="0" style="stop-color:#E7F1FD"/>
	<stop  offset="1" style="stop-color:#B2C7D8"/>
</linearGradient>
<path style="fill:url(#SVGID_4_);" d="M495.809,424.477l-98.856-32.904c-5.009-1.671-10.26-2.504-15.429-2.503l-22.751-247.546
	c4.239,0,8.516,0.562,12.595,1.679l88.854,24.359c3.917,1.099,6.769,3.538,7.267,6.25l44.371,241.379
	C513.201,422.493,504.701,427.437,495.809,424.477z"/>
<linearGradient id="SVGID_5_" gradientUnits="userSpaceOnUse" x1="421.7824" y1="283.663" x2="426.3324" y2="81.033" gradientTransform="matrix(1.0039 0 0 -1.0039 0.1921 516.5604)">
	<stop  offset="0" style="stop-color:#B2C7D8;stop-opacity:0"/>
	<stop  offset="1" style="stop-color:#879FAF"/>
</linearGradient>
<path style="fill:url(#SVGID_5_);" d="M373.475,254.042c4.845,0,9.735,0.643,14.396,1.918l99.744,27.345l-20.128-109.494
	c-0.499-2.713-3.35-5.151-7.268-6.25l-88.854-24.359c-4.078-1.116-8.356-1.679-12.595-1.679l10.357,112.701
	C370.569,254.108,372.019,254.042,373.475,254.042z"/>
<linearGradient id="SVGID_6_" gradientUnits="userSpaceOnUse" x1="327.1617" y1="230.426" x2="246.1617" y2="232.426" gradientTransform="matrix(1.0039 0 0 -1.0039 0.1921 516.5604)">
	<stop  offset="0" style="stop-color:#E7F1FD"/>
	<stop  offset="1" style="stop-color:#B2C7D8"/>
</linearGradient>
<path style="fill:url(#SVGID_6_);" d="M268.69,165.662l77.796-22.46c3.873-1.116,8.055-1.679,12.286-1.679l22.751,247.547
	c-5.167,0-10.264,0.833-14.969,2.503l-94.981,33.676c-4.953,1.753-10.26,2.639-15.574,2.639V167.412
	C260.331,167.413,264.657,166.829,268.69,165.662z"/>
<linearGradient id="SVGID_7_" gradientUnits="userSpaceOnUse" x1="254.8091" y1="365.7832" x2="254.8091" y2="69.9732" gradientTransform="matrix(1.0039 0 0 -1.0039 0.1921 516.5604)">
	<stop  offset="0" style="stop-color:#B3E800"/>
	<stop  offset="1" style="stop-color:#98BC00"/>
</linearGradient>
<path style="fill:url(#SVGID_7_);" d="M453.643,186.133c-0.467-2.54-2.346-4.588-4.837-5.271l-81.629-22.378
	c-0.662-0.182-1.343-0.343-2.031-0.481c-2.085-0.421-4.229-0.633-6.372-0.633c-2.763,0-5.494,0.366-7.892,1.057l-77.788,22.457
	c-0.591,0.171-1.194,0.32-1.798,0.462l-0.306,0.072c-0.816,0.204-1.794,0.441-2.855,0.65c-4.003,0.79-8.085,1.19-12.134,1.19
	c-4.097,0-8.217-0.407-12.244-1.21c-1.776-0.353-3.361-0.735-4.842-1.163l-77.794-22.46c-0.582-0.168-1.189-0.318-1.808-0.447
	c-1.275-0.267-2.616-0.448-3.985-0.54c-0.691-0.046-1.397-0.069-2.1-0.069c-2.833,0-5.741,0.387-8.405,1.115l-81.627,22.377
	c-2.491,0.683-4.37,2.731-4.837,5.271L19.766,396.079c-0.925,5.033,3.885,9.214,8.74,7.599l81.53-27.137
	c6.601-2.201,13.477-3.316,20.443-3.316c7.064,0.001,13.881,1.149,20.263,3.413l94.971,33.674c3.201,1.132,6.758,1.732,10.287,1.732
	c3.529,0,7.086-0.599,10.278-1.729l94.978-33.676c6.385-2.265,13.204-3.414,20.266-3.414c6.961-0.001,13.839,1.115,20.436,3.314
	l81.536,27.14c4.855,1.616,9.665-2.566,8.74-7.599L453.643,186.133z"/>
<linearGradient id="SVGID_8_" gradientUnits="userSpaceOnUse" x1="97.9664" y1="281.8628" x2="110.5464" y2="183.1728" gradientTransform="matrix(1.0039 0 0 -1.0039 0.1921 516.5604)">
	<stop  offset="0" style="stop-color:#98BC00;stop-opacity:0"/>
	<stop  offset="1" style="stop-color:#5E6D03"/>
</linearGradient>
<path style="fill:url(#SVGID_8_);" d="M144.823,158.484l-81.627,22.377c-2.491,0.683-4.37,2.732-4.837,5.271l-17.007,92.522
	l82.778-22.694c4.661-1.276,9.551-1.918,14.396-1.918c1.456,0,2.906,0.065,4.344,0.182l8.897-96.806
	C149.405,157.526,147.03,157.88,144.823,158.484z"/>
<linearGradient id="SVGID_9_" gradientUnits="userSpaceOnUse" x1="194.1485" y1="232.1785" x2="292.2485" y2="219.4185" gradientTransform="matrix(1.0039 0 0 -1.0039 0.1921 516.5604)">
	<stop  offset="0" style="stop-color:#98BC00;stop-opacity:0"/>
	<stop  offset="1" style="stop-color:#5E6D03"/>
</linearGradient>
<path style="fill:url(#SVGID_9_);" d="M243.756,182.049c-1.775-0.354-3.361-0.735-4.842-1.163l-77.794-22.46
	c-0.582-0.168-1.189-0.318-1.808-0.447c-1.275-0.267-2.616-0.449-3.985-0.541c-0.691-0.046-1.397-0.069-2.1-0.069
	c-0.485,0-0.973,0.027-1.461,0.049l-19.836,215.836c6.545,0.148,12.869,1.276,18.811,3.384l94.971,33.674
	c3.201,1.132,6.758,1.732,10.287,1.732V183.258C251.903,183.258,247.783,182.851,243.756,182.049z"/>
<linearGradient id="SVGID_10_" gradientUnits="userSpaceOnUse" x1="398.5696" y1="233.067" x2="325.2396" y2="227.067" gradientTransform="matrix(1.0039 0 0 -1.0039 0.1921 516.5604)">
	<stop  offset="0" style="stop-color:#98BC00;stop-opacity:0"/>
	<stop  offset="1" style="stop-color:#5E6D03"/>
</linearGradient>
<path style="fill:url(#SVGID_10_);" d="M453.643,186.133c-0.467-2.54-2.346-4.588-4.837-5.271l-81.629-22.378
	c-0.662-0.182-1.343-0.343-2.031-0.481c-1.611-0.325-3.258-0.523-4.912-0.597l19.838,215.849c0.484-0.011,0.966-0.03,1.452-0.03
	c6.961,0,13.839,1.115,20.436,3.314l81.536,27.14c4.855,1.616,9.665-2.566,8.74-7.599L453.643,186.133z"/>
<linearGradient id="SVGID_11_" gradientUnits="userSpaceOnUse" x1="328.8972" y1="165.4898" x2="248.8372" y2="401.7498" gradientTransform="matrix(1.0039 0 0 -1.0039 0.1921 516.5604)">
	<stop  offset="0" style="stop-color:#98BC00;stop-opacity:0"/>
	<stop  offset="1" style="stop-color:#5E6D03"/>
</linearGradient>
<path style="fill:url(#SVGID_11_);" d="M266.278,410.314l94.978-33.676c5.945-2.109,12.27-3.238,18.814-3.385l-19.838-215.848
	c-0.486-0.022-0.973-0.036-1.46-0.036c-2.763,0-5.494,0.366-7.892,1.057l-77.788,22.458c-0.591,0.171-1.194,0.319-1.798,0.462
	l-0.306,0.072c-0.816,0.204-1.794,0.441-2.855,0.65c-4.003,0.79-8.085,1.19-12.134,1.19v228.784
	C259.529,412.043,263.087,411.444,266.278,410.314z"/>
<linearGradient id="SVGID_12_" gradientUnits="userSpaceOnUse" x1="87.4393" y1="234.9657" x2="193.4393" y2="229.6356" gradientTransform="matrix(1.0039 0 0 -1.0039 0.1921 516.5604)">
	<stop  offset="0" style="stop-color:#98BC00;stop-opacity:0"/>
	<stop  offset="1" style="stop-color:#5E6D03"/>
</linearGradient>
<path style="fill:url(#SVGID_12_);" d="M144.823,158.484l-81.627,22.377c-2.491,0.683-4.37,2.732-4.837,5.271L19.766,396.079
	c-0.926,5.033,3.885,9.214,8.74,7.599l81.53-27.137c6.601-2.201,13.477-3.316,20.443-3.316c0.486,0,0.969,0.019,1.453,0.03
	l19.836-215.836C149.405,157.526,147.03,157.88,144.823,158.484z"/>
<linearGradient id="SVGID_13_" gradientUnits="userSpaceOnUse" x1="201.1884" y1="278.2632" x2="193.4284" y2="188.2032" gradientTransform="matrix(1.0039 0 0 -1.0039 0.1921 516.5604)">
	<stop  offset="0" style="stop-color:#909698;stop-opacity:0"/>
	<stop  offset="1" style="stop-color:#909698"/>
</linearGradient>
<path style="fill:url(#SVGID_13_);" d="M152.57,255.961l88.925,25.673c4.611,1.333,9.555,2.001,14.506,2.001V167.412
	c-4.33,0-8.657-0.584-12.691-1.751l-77.796-22.46c-3.873-1.116-8.056-1.679-12.286-1.679L142.87,254.224
	C146.207,254.494,149.476,255.069,152.57,255.961z"/>
<linearGradient id="SVGID_14_" gradientUnits="userSpaceOnUse" x1="200.7646" y1="273.3227" x2="193.9246" y2="193.9727" gradientTransform="matrix(1.0039 0 0 -1.0039 0.1921 516.5604)">
	<stop  offset="0" style="stop-color:#889B26;stop-opacity:0"/>
	<stop  offset="1" style="stop-color:#454F1E"/>
</linearGradient>
<path style="fill:url(#SVGID_14_);" d="M238.915,180.886l-77.794-22.46c-0.582-0.168-1.189-0.318-1.808-0.447
	c-1.275-0.267-2.616-0.449-3.985-0.541c-0.691-0.046-1.397-0.069-2.1-0.069c-0.485,0-0.973,0.027-1.461,0.049l-8.897,96.806
	c3.337,0.27,6.606,0.845,9.7,1.737l88.925,25.673c4.611,1.333,9.555,2.001,14.506,2.001V183.258c-4.097,0-8.217-0.407-12.244-1.21
	C241.981,181.695,240.395,181.314,238.915,180.886z"/>
<linearGradient id="SVGID_15_" gradientUnits="userSpaceOnUse" x1="413.9991" y1="280.8632" x2="417.889" y2="107.5732" gradientTransform="matrix(1.0039 0 0 -1.0039 0.1921 516.5604)">
	<stop  offset="0" style="stop-color:#98BC00;stop-opacity:0"/>
	<stop  offset="1" style="stop-color:#5E6D03"/>
</linearGradient>
<path style="fill:url(#SVGID_15_);" d="M470.65,278.654l-17.007-92.521c-0.467-2.54-2.346-4.588-4.837-5.271l-81.629-22.378
	c-0.662-0.182-1.343-0.343-2.031-0.481c-1.611-0.325-3.258-0.523-4.912-0.597l8.898,96.819c1.439-0.116,2.888-0.182,4.344-0.182
	c4.845,0,9.735,0.643,14.396,1.918L470.65,278.654z"/>
<linearGradient id="SVGID_16_" gradientUnits="userSpaceOnUse" x1="317.7873" y1="271.6525" x2="345.2473" y2="199.1324" gradientTransform="matrix(1.0039 0 0 -1.0039 0.1921 516.5604)">
	<stop  offset="0" style="stop-color:#909698;stop-opacity:0"/>
	<stop  offset="1" style="stop-color:#909698"/>
</linearGradient>
<path style="fill:url(#SVGID_16_);" d="M270.506,281.634l88.925-25.673c3.094-0.891,6.362-1.467,9.7-1.737l-10.358-112.701
	c-4.23,0-8.413,0.562-12.286,1.679l-77.796,22.46c-4.034,1.167-8.36,1.751-12.69,1.751v116.223
	C260.95,283.635,265.896,282.967,270.506,281.634z"/>
<linearGradient id="SVGID_17_" gradientUnits="userSpaceOnUse" x1="316.9845" y1="267.7814" x2="341.0845" y2="204.1314" gradientTransform="matrix(1.0039 0 0 -1.0039 0.1921 516.5604)">
	<stop  offset="0" style="stop-color:#889B26;stop-opacity:0"/>
	<stop  offset="1" style="stop-color:#454F1E"/>
</linearGradient>
<path style="fill:url(#SVGID_17_);" d="M270.506,281.634l88.925-25.673c3.094-0.891,6.363-1.467,9.7-1.737l-8.898-96.819
	c-0.486-0.022-0.973-0.036-1.46-0.036c-2.763,0-5.494,0.366-7.892,1.057l-77.788,22.458c-0.591,0.171-1.194,0.319-1.798,0.462
	l-0.306,0.072c-0.816,0.204-1.794,0.441-2.855,0.65c-4.003,0.79-8.085,1.19-12.134,1.19v100.377
	C260.95,283.635,265.896,282.967,270.506,281.634z"/>
<path style="fill:#E7F1FD;" d="M463.35,238.94c0.441,18.394-4.157,29.557-14.228,34.765c-11.291,5.837-26.752,2.668-47.268-9.691
	c-17.255-10.396-35.619-20.01-53.735-13.628c-8.358,2.944-14.561,8.893-19.03,13.746c-2.232,2.422-4.423,4.984-6.543,7.463
	c-8.46,9.895-16.452,19.241-28.377,22.537c-10.179,2.814-20.833,0.503-32.113-1.944c-7.61-1.65-15.478-3.357-23.439-3.466
	c-9.514-0.145-19.082,2.256-27.854,6.622c-5.565-1.036-14.914-0.181-22.559,0.523c-2.797,0.257-5.212,0.48-6.867,0.551
	c-4.862,0.209-11.169-1.187-12.921-5.821c-0.711-1.879-0.643-4.274-0.511-6.565c0.539-9.422,2.08-18.797,4.579-27.866l0.068-0.249
	c0.826-2.992,1.854-6.714,0.808-10.475c-0.873-3.141-3.06-5.906-6.687-8.451c-6.183-4.341-13.43-6.696-20.439-8.975
	c-9.725-3.161-18.912-6.147-23.808-14.027c-5.454-8.778-3.091-20.753,1.672-28.727c5.442-9.112,13.998-15.678,23.026-22.151
	l0.427-0.306c2.401-1.721,4.704-5.427,4.215-5.405c-2.361,0.108-4.736,0.478-6.944,1.081l-6.242,1.712
	c-7.896,5.884-15.599,12.518-20.83,21.277c-7.216,12.081-7.845,26.378-1.603,36.421c6.323,10.175,17.242,13.724,27.803,17.157
	c6.49,2.109,13.201,4.291,18.476,7.994c2.168,1.522,3.414,2.955,3.811,4.38c0.497,1.787-0.139,4.089-0.811,6.525l-0.069,0.252
	c-2.638,9.572-4.265,19.466-4.833,29.41c-0.169,2.95-0.246,6.368,0.977,9.603c2.973,7.86,11.465,10.621,18.873,10.62
	c0.433,0,0.862-0.009,1.286-0.028c1.833-0.079,4.331-0.309,7.224-0.575c3.117-0.287,6.953-0.638,10.586-0.834
	c-8.535,6.533-15.69,15.078-20.371,24.935l-0.146,0.307c-0.953,2.013-1.852,3.913-3.264,4.609c-1.605,0.792-4.213,0.303-6.735-0.17
	l-0.527-0.098c-22.931-4.253-49.379,2.137-72.56,17.533c-20.128,13.368-35.573,31.18-50.432,48.528l13.72-4.567
	c12.127-13.837,25.072-27.353,40.804-37.803c21.594-14.343,46.06-20.33,67.121-16.422l0.513,0.096
	c3.364,0.629,7.55,1.415,11.365-0.465c3.725-1.834,5.364-5.297,6.68-8.079l0.142-0.299c9.654-20.331,31.002-34.392,52.096-34.392
	c0.213,0,0.43,0.002,0.644,0.004c7.218,0.098,14.717,1.725,21.971,3.298c6.334,1.373,12.785,2.766,19.27,3.229
	c9.94,2.412,16.758,13.546,20.432,19.549l0.06,0.099c5.625,9.194,12.54,14.474,19.999,15.269c5.463,0.579,10.696-1.318,14.902-2.845
	l10.284-3.733c14.939-5.424,31.732,1.139,39.051,15.269c1.917,3.698,4.065,7.314,6.387,10.746c0.495,0.731,1,1.46,1.507,2.191
	c2.747,3.959,5.341,7.699,6.246,11.849c0.321,1.473,0.427,3.018,0.443,4.62c0.968,0.273,1.932,0.562,2.888,0.881l4.482,1.492
	c0.073-2.788,0.048-5.649-0.589-8.568c-1.218-5.584-4.358-10.111-7.395-14.489c-0.491-0.707-0.98-1.413-1.459-2.119
	c-2.16-3.194-4.161-6.561-5.945-10.004c-9.022-17.414-29.716-25.506-48.141-18.818l-10.284,3.733
	c-3.672,1.333-7.835,2.844-11.594,2.443c-6.43-0.685-11.421-6.78-14.474-11.775l-0.06-0.098
	c-2.709-4.428-6.909-11.275-12.961-16.455c0.867-0.18,1.736-0.379,2.602-0.619c14.104-3.898,23.216-14.554,32.027-24.859
	c2.076-2.426,4.221-4.937,6.361-7.259c3.89-4.222,9.229-9.378,16.049-11.781c15.082-5.317,31.716,3.501,47.461,12.988
	c22.897,13.795,40.717,17.041,54.48,9.925c7.851-4.059,12.51-10.451,15.162-17.773L463.35,238.94z"/>
<linearGradient id="SVGID_18_" gradientUnits="userSpaceOnUse" x1="417.6105" y1="158.3046" x2="181.3505" y2="394.5645" gradientTransform="matrix(1.0039 0 0 -1.0039 0.1921 516.5604)">
	<stop  offset="0" style="stop-color:#98BC00;stop-opacity:0"/>
	<stop  offset="1" style="stop-color:#5E6D03"/>
</linearGradient>
<path style="fill:url(#SVGID_18_);" d="M492.598,310.406L330.119,147.927l-61.429,17.734c-4.034,1.167-8.36,1.751-12.69,1.751
	c-2.97,0-5.929-0.295-8.802-0.844c-1.317-0.251-2.62-0.54-3.888-0.907l-46.677-13.476l-14.767-4.264
	c-0.542,3.638-0.829,7.359-0.829,11.149c0,33.366,21.801,105.555,51.934,132.325l108.921,108.921l24.663-8.744
	c4.705-1.67,9.802-2.503,14.969-2.503c5.169,0,10.421,0.833,15.429,2.503l98.856,32.904c8.892,2.961,17.392-1.984,16.05-9.285
	L492.598,310.406z"/>
<linearGradient id="SVGID_19_" gradientUnits="userSpaceOnUse" x1="321.3192" y1="322.4102" x2="162.1691" y2="322.4102" gradientTransform="matrix(1.0039 0 0 -1.0039 0.1921 516.5604)">
	<stop  offset="0" style="stop-color:#FF4C4A"/>
	<stop  offset="1" style="stop-color:#FF001C"/>
</linearGradient>
<path style="fill:url(#SVGID_19_);" d="M330.965,159.071c0,41.402-33.563,142.596-74.965,142.596s-74.965-101.194-74.965-142.596
	S214.598,84.107,256,84.107S330.965,117.669,330.965,159.071z"/>
<linearGradient id="SVGID_20_" gradientUnits="userSpaceOnUse" x1="241.5891" y1="322.4102" x2="283.0291" y2="322.4102" gradientTransform="matrix(1.0039 0 0 -1.0039 0.1921 516.5604)">
	<stop  offset="0" style="stop-color:#FF4C4A"/>
	<stop  offset="1" style="stop-color:#FF001C"/>
</linearGradient>
<path style="fill:url(#SVGID_20_);" d="M327.017,160.851c0,39.221-31.795,135.086-71.016,135.086s-71.016-95.865-71.016-135.086
	S216.779,89.835,256,89.835S327.017,121.63,327.017,160.851z"/>
<linearGradient id="SVGID_21_" gradientUnits="userSpaceOnUse" x1="335.0966" y1="273.8306" x2="221.2866" y2="387.6406" gradientTransform="matrix(1.0039 0 0 -1.0039 0.1921 516.5604)">
	<stop  offset="0" style="stop-color:#FF001C;stop-opacity:0"/>
	<stop  offset="1" style="stop-color:#C1001C"/>
</linearGradient>
<path style="fill:url(#SVGID_21_);" d="M330.854,163.357l-37.38-37.598c-9.37-10.002-22.688-16.26-37.474-16.26
	c-28.361,0-51.353,22.992-51.353,51.352c0,14.654,6.149,27.865,15.994,37.221l74.069,74.501
	C315.35,241.078,329.489,191.582,330.854,163.357z"/>
<radialGradient id="SVGID_22_" cx="222.4591" cy="386.4432" r="100.49" gradientTransform="matrix(1.0039 0 0 -1.0039 0.1921 516.5604)" gradientUnits="userSpaceOnUse">
	<stop  offset="0" style="stop-color:#FFCF42"/>
	<stop  offset="0.109" style="stop-color:#FFCD3C"/>
	<stop  offset="0.258" style="stop-color:#FFC62A"/>
	<stop  offset="0.429" style="stop-color:#FFBA0D"/>
	<stop  offset="0.496" style="stop-color:#FFB500"/>
	<stop  offset="1" style="stop-color:#FF7000"/>
</radialGradient>
<circle style="fill:url(#SVGID_22_);" cx="256" cy="160.848" r="51.35"/>
<linearGradient id="SVGID_23_" gradientUnits="userSpaceOnUse" x1="71.5273" y1="118.6555" x2="74.1173" y2="109.6655" gradientTransform="matrix(1.0039 0 0 -1.0039 0.1921 516.5604)">
	<stop  offset="0" style="stop-color:#B2C7D8;stop-opacity:0"/>
	<stop  offset="1" style="stop-color:#879FAF"/>
</linearGradient>
<path style="fill:url(#SVGID_23_);" d="M134.586,344.428l-4.106,44.644c-5.17,0-10.421,0.833-15.43,2.5l-98.856,32.908
	c-8.895,2.952-17.398-1.988-16.053-9.286l6.495-35.318c2.771,0.883,6.134,0.924,9.557-0.221l98.856-32.898
	c5.01-1.677,10.26-2.51,15.43-2.51C131.855,344.248,133.221,344.308,134.586,344.428z"/>
<linearGradient id="SVGID_24_" gradientUnits="userSpaceOnUse" x1="189.4706" y1="116.519" x2="186.6706" y2="108.829" gradientTransform="matrix(1.0039 0 0 -1.0039 0.1921 516.5604)">
	<stop  offset="0" style="stop-color:#B2C7D8;stop-opacity:0"/>
	<stop  offset="1" style="stop-color:#879FAF"/>
</linearGradient>
<path style="fill:url(#SVGID_24_);" d="M256,383.069v44.825c-5.311,0-10.621-0.894-15.571-2.64l-94.981-33.681
	c-4.708-1.667-9.808-2.5-14.968-2.5l4.106-44.644c3.745,0.321,7.409,1.094,10.862,2.329l94.981,33.671
	C245.378,382.186,250.689,383.069,256,383.069z"/>
<linearGradient id="SVGID_25_" gradientUnits="userSpaceOnUse" x1="437.1683" y1="119.2662" x2="433.9684" y2="110.4062" gradientTransform="matrix(1.0039 0 0 -1.0039 0.1921 516.5604)">
	<stop  offset="0" style="stop-color:#B2C7D8;stop-opacity:0"/>
	<stop  offset="1" style="stop-color:#879FAF"/>
</linearGradient>
<path style="fill:url(#SVGID_25_);" d="M495.807,424.481l-98.856-32.908c-5.01-1.667-10.26-2.5-15.43-2.5l-4.106-44.644
	c1.365-0.12,2.731-0.181,4.106-0.181c5.17,0,10.421,0.833,15.43,2.51l98.856,32.898c3.423,1.145,6.786,1.104,9.557,0.221
	l6.495,35.318C513.204,422.493,504.701,427.432,495.807,424.481z"/>
<linearGradient id="SVGID_26_" gradientUnits="userSpaceOnUse" x1="319.3474" y1="118.5826" x2="322.6574" y2="109.3825" gradientTransform="matrix(1.0039 0 0 -1.0039 0.1921 516.5604)">
	<stop  offset="0" style="stop-color:#B2C7D8;stop-opacity:0"/>
	<stop  offset="1" style="stop-color:#879FAF"/>
</linearGradient>
<path style="fill:url(#SVGID_26_);" d="M381.52,389.073c-5.16,0-10.26,0.833-14.968,2.5l-94.981,33.681
	c-4.949,1.747-10.26,2.64-15.571,2.64v-44.825c5.311,0,10.621-0.883,15.571-2.64l94.981-33.671
	c3.453-1.235,7.118-2.008,10.862-2.329L381.52,389.073z"/>
<g>
</g>
<g>
</g>
<g>
</g>
<g>
</g>
<g>
</g>
<g>
</g>
<g>
</g>
<g>
</g>
<g>
</g>
<g>
</g>
<g>
</g>
<g>
</g>
<g>
</g>
<g>
</g>
<g>
</g>
</svg>
