<?xml version="1.0" encoding="iso-8859-1"?>
<!-- Generator: Adobe Illustrator 21.0.0, SVG Export Plug-In . SVG Version: 6.00 Build 0)  -->
<svg version="1.1" id="Capa_1" xmlns="http://www.w3.org/2000/svg" xmlns:xlink="http://www.w3.org/1999/xlink" x="0px" y="0px"
	 viewBox="0 0 512 512" style="enable-background:new 0 0 512 512;" xml:space="preserve">
<linearGradient id="SVGID_1_" gradientUnits="userSpaceOnUse" x1="238.8038" y1="121.2887" x2="345.5038" y2="14.5787" gradientTransform="matrix(1.0039 0 0 -1.0039 0.1922 516.5609)">
	<stop  offset="0" style="stop-color:#FFB92D"/>
	<stop  offset="1" style="stop-color:#F59500"/>
</linearGradient>
<circle style="fill:url(#SVGID_1_);" cx="255.999" cy="410.865" r="101.135"/>
<linearGradient id="SVGID_2_" gradientUnits="userSpaceOnUse" x1="254.8091" y1="38.443" x2="254.8091" y2="297.373" gradientTransform="matrix(1.0039 0 0 -1.0039 0.1922 516.5609)">
	<stop  offset="0" style="stop-color:#BE3F45;stop-opacity:0"/>
	<stop  offset="1" style="stop-color:#BE3F45"/>
</linearGradient>
<path style="fill:url(#SVGID_2_);" d="M256,309.722c-55.857,0-101.139,45.282-101.139,101.139c0,0.954,0.045,1.895,0.072,2.843
	l98.224,98.224c0.948,0.026,1.889,0.072,2.843,0.072c55.857,0,101.139-45.282,101.139-101.139S311.858,309.722,256,309.722z"/>
<linearGradient id="SVGID_3_" gradientUnits="userSpaceOnUse" x1="37.7771" y1="454.944" x2="383.3291" y2="109.394" gradientTransform="matrix(1.0039 0 0 -1.0039 0.1922 516.5609)">
	<stop  offset="0" style="stop-color:#FFF465"/>
	<stop  offset="1" style="stop-color:#FFE600"/>
</linearGradient>
<path style="fill:url(#SVGID_3_);" d="M501.842,336.903l-0.189-1.191c-4.99-31.503-33.896-53.558-65.583-49.912
	c-0.289,0.033-0.578,0.066-0.867,0.099c-15.574,1.783-29.217-10.435-29.217-26.11V149.984C405.984,67.15,338.834,0,256,0l0,0
	c-82.834,0-149.984,67.15-149.984,149.984v109.808c0,15.675-13.643,27.893-29.217,26.11c-0.288-0.033-0.577-0.066-0.865-0.099
	c-31.688-3.647-60.596,18.408-65.586,49.911l-0.189,1.19c-5.3,33.451,18.283,64.682,51.93,68.555
	c129.15,14.867,258.671,14.866,387.822,0C483.555,401.586,507.139,370.355,501.842,336.903z"/>
<linearGradient id="SVGID_4_" gradientUnits="userSpaceOnUse" x1="254.8091" y1="288.173" x2="254.8091" y2="201.643" gradientTransform="matrix(1.0039 0 0 -1.0039 0.1922 516.5609)">
	<stop  offset="0" style="stop-color:#62E1FB"/>
	<stop  offset="1" style="stop-color:#00A2F3"/>
</linearGradient>
<path style="fill:url(#SVGID_4_);" d="M406.018,260.998c-0.018-0.401-0.032-0.801-0.032-1.206v-52.766
	c-99.932,8.891-200.036,8.892-299.969,0.001v52.766c0,0.405-0.015,0.805-0.033,1.206
	C205.938,269.892,306.063,269.891,406.018,260.998z"/>
<linearGradient id="SVGID_5_" gradientUnits="userSpaceOnUse" x1="242.7307" y1="130.84" x2="204.7627" y2="7.97" gradientTransform="matrix(1.0039 0 0 -1.0039 0.1922 516.5609)">
	<stop  offset="0" style="stop-color:#FFF465"/>
	<stop  offset="1" style="stop-color:#FFE600"/>
</linearGradient>
<path style="fill:url(#SVGID_5_);" d="M449.91,405.459c-129.15,14.866-258.669,14.868-387.819,0.001
	c-33.646-3.873-57.231-35.103-51.933-68.555c0.063-0.397,0.125-0.793,0.189-1.19c4.991-31.516,33.915-53.556,65.614-49.908
	c119.939,13.802,240.139,13.8,360.08-0.001c31.699-3.647,60.621,18.393,65.612,49.909c0.063,0.397,0.125,0.793,0.189,1.191
	C507.139,370.355,483.556,401.586,449.91,405.459z"/>
<linearGradient id="SVGID_6_" gradientUnits="userSpaceOnUse" x1="494.5837" y1="311.2987" x2="397.9838" y2="407.8887" gradientTransform="matrix(1.0039 0 0 -1.0039 0.1922 516.5609)">
	<stop  offset="0" style="stop-color:#FFE600;stop-opacity:0"/>
	<stop  offset="1" style="stop-color:#F59500"/>
</linearGradient>
<path style="fill:url(#SVGID_6_);" d="M386.862,119.344l18.646,18.646c-2.675-33.804-16.559-64.451-37.934-88.231
	c-1.749,6.067-2.705,12.47-2.705,19.099c0,19.321,7.969,36.774,20.786,49.28C386.052,118.545,386.454,118.947,386.862,119.344z"/>
<linearGradient id="SVGID_7_" gradientUnits="userSpaceOnUse" x1="395.5331" y1="482.258" x2="542.553" y2="335.238" gradientTransform="matrix(1.0039 0 0 -1.0039 0.1922 516.5609)">
	<stop  offset="0" style="stop-color:#FF4C54"/>
	<stop  offset="1" style="stop-color:#BE3F45"/>
</linearGradient>
<circle style="fill:url(#SVGID_7_);" cx="433.724" cy="68.859" r="68.859"/>
<linearGradient id="SVGID_8_" gradientUnits="userSpaceOnUse" x1="484.1363" y1="387.8012" x2="383.2463" y2="488.6902" gradientTransform="matrix(1.0039 0 0 -1.0039 0.1922 516.5609)">
	<stop  offset="0" style="stop-color:#BE3F45;stop-opacity:0"/>
	<stop  offset="1" style="stop-color:#BE3F45"/>
</linearGradient>
<path style="fill:url(#SVGID_8_);" d="M501.325,81.962l-49.821-49.815c-4.938-4.403-10.924-6.605-17.955-6.605
	c-6.637,0-12.345,1.956-17.125,5.867c-4.781,3.91-7.17,8.948-7.17,15.11c0,3.186,0.886,5.282,2.658,6.29l17.872,17.949l-8.441,6.144
	c-3.772,2.763-6.948,5.841-9.525,9.233c-2.578,3.392-3.866,6.865-3.866,10.417v11.481c0,1.186,0.607,2.17,1.824,2.96
	c0.052,0.034,0.105,0.057,0.159,0.089l26.537,26.567C468.787,136.38,495.372,112.851,501.325,81.962z"/>
<path style="fill:#FFFFFF;" d="M407.951,108.032V96.551c0-3.552,1.289-7.023,3.866-10.417c2.578-3.392,5.753-6.47,9.525-9.233
	l11.377-8.281c3.793-2.759,7.01-5.796,9.659-9.109c2.646-3.311,3.97-6.624,3.97-9.937c0-3.311-1.087-6.209-3.259-8.694
	c-2.173-2.483-5.353-3.726-9.54-3.726c-3.556,0-6.44,0.982-8.652,2.942c-2.213,1.961-3.318,4.863-3.318,8.705
	c0,1.255-0.613,2.355-1.837,3.296c-1.226,0.941-2.826,1.412-4.8,1.412c-3.793,0-5.688-2.329-5.688-6.992
	c0-6.163,2.389-11.2,7.17-15.11c4.78-3.911,10.488-5.867,17.125-5.867c7.031,0,13.016,2.202,17.955,6.605
	c4.936,4.403,7.407,10.094,7.407,17.075c0,4.733-1.324,9.168-3.97,13.309c-2.648,4.14-5.848,7.65-9.6,10.527
	c-3.754,2.879-7.507,5.6-11.259,8.163c-3.754,2.563-6.953,5.146-9.6,7.747c-2.648,2.603-3.97,5.127-3.97,7.572v4.495h34.843
	c1.105,0,2.074,0.533,2.903,1.6c0.829,1.067,1.245,2.351,1.245,3.852c0,1.502-0.413,2.826-1.237,3.971
	c-0.824,1.146-1.785,1.719-2.883,1.719h-41.902c-1.256,0-2.493-0.395-3.707-1.184C408.558,110.202,407.951,109.218,407.951,108.032z
	"/>
<g>
</g>
<g>
</g>
<g>
</g>
<g>
</g>
<g>
</g>
<g>
</g>
<g>
</g>
<g>
</g>
<g>
</g>
<g>
</g>
<g>
</g>
<g>
</g>
<g>
</g>
<g>
</g>
<g>
</g>
</svg>
