<?xml version="1.0" encoding="iso-8859-1"?>
<!-- Generator: Adobe Illustrator 19.0.0, SVG Export Plug-In . SVG Version: 6.00 Build 0)  -->
<svg version="1.1" id="Capa_1" xmlns="http://www.w3.org/2000/svg" xmlns:xlink="http://www.w3.org/1999/xlink" x="0px" y="0px"
	 viewBox="0 0 512 512" style="enable-background:new 0 0 512 512;" xml:space="preserve">
<rect x="212" y="39.185" style="fill:#FF9102;" width="88.011" height="31.609"/>
<linearGradient id="SVGID_1_" gradientUnits="userSpaceOnUse" x1="278.9387" y1="440.8787" x2="213.9787" y2="505.8347" gradientTransform="matrix(1.0667 0 0 -1.0667 3.2667 557.5334)">
	<stop  offset="0" style="stop-color:#FFC200;stop-opacity:0"/>
	<stop  offset="0.161" style="stop-color:#FDBB00;stop-opacity:0.161"/>
	<stop  offset="0.397" style="stop-color:#F7A700;stop-opacity:0.397"/>
	<stop  offset="0.678" style="stop-color:#EE8700;stop-opacity:0.678"/>
	<stop  offset="0.992" style="stop-color:#E05B00;stop-opacity:0.992"/>
	<stop  offset="1" style="stop-color:#E05A00"/>
</linearGradient>
<polygon style="fill:url(#SVGID_1_);" points="211.996,45.742 237.047,70.794 300.004,70.794 300.004,39.185 211.996,39.185 "/>
<linearGradient id="SVGID_2_" gradientUnits="userSpaceOnUse" x1="406.6712" y1="432.7939" x2="367.5312" y2="393.6439" gradientTransform="matrix(1.0667 0 0 -1.0667 3.2667 557.5334)">
	<stop  offset="0" style="stop-color:#C2CECE"/>
	<stop  offset="1" style="stop-color:#97AAAA"/>
</linearGradient>
<path style="fill:url(#SVGID_2_);" d="M407.775,140.419l-15.253-15.253c-5.36-5.36-5.36-14.05,0-19.41l15.253-15.253
	c5.36-5.36,14.05-5.36,19.41,0l15.253,15.253c5.36,5.36,5.36,14.05,0,19.41l-15.253,15.253
	C421.825,145.779,413.135,145.779,407.775,140.419z"/>
<linearGradient id="SVGID_3_" gradientUnits="userSpaceOnUse" x1="103.8994" y1="432.7957" x2="64.7564" y2="393.6457" gradientTransform="matrix(1.0667 0 0 -1.0667 3.2667 557.5334)">
	<stop  offset="0" style="stop-color:#C2CECE"/>
	<stop  offset="1" style="stop-color:#97AAAA"/>
</linearGradient>
<path style="fill:url(#SVGID_3_);" d="M69.562,125.166l15.253,15.253c5.36,5.36,14.05,5.36,19.41,0l15.253-15.253
	c5.36-5.36,5.36-14.05,0-19.41l-15.253-15.253c-5.36-5.36-14.05-5.36-19.41,0l-15.253,15.253
	C64.202,111.116,64.202,119.806,69.562,125.166z"/>
<linearGradient id="SVGID_4_" gradientUnits="userSpaceOnUse" x1="236.9375" y1="560.7375" x2="236.9375" y2="22.6075" gradientTransform="matrix(1.0667 0 0 -1.0667 3.2667 557.5334)">
	<stop  offset="0" style="stop-color:#FFCF95"/>
	<stop  offset="0.427" style="stop-color:#FFC954"/>
	<stop  offset="1" style="stop-color:#FFC200"/>
</linearGradient>
<circle style="fill:url(#SVGID_4_);" cx="256" cy="285.611" r="226.389"/>
<linearGradient id="SVGID_5_" gradientUnits="userSpaceOnUse" x1="132.9775" y1="358.8875" x2="330.7975" y2="161.0675" gradientTransform="matrix(1.0667 0 0 -1.0667 3.2667 557.5334)">
	<stop  offset="0" style="stop-color:#FFFFFF"/>
	<stop  offset="1" style="stop-color:#E8EFEE"/>
</linearGradient>
<circle style="fill:url(#SVGID_5_);" cx="256" cy="285.611" r="204.171"/>
<radialGradient id="SVGID_6_" cx="242.1475" cy="249.1475" r="206.66" gradientTransform="matrix(1.0667 0 0 -1.0667 3.2667 557.5334)" gradientUnits="userSpaceOnUse">
	<stop  offset="1.000000e-004" style="stop-color:#FFFFFF;stop-opacity:0"/>
	<stop  offset="0.482" style="stop-color:#FDFDFD;stop-opacity:0.482"/>
	<stop  offset="0.656" style="stop-color:#F6F7F7;stop-opacity:0.655"/>
	<stop  offset="0.779" style="stop-color:#EBEDEC;stop-opacity:0.779"/>
	<stop  offset="0.879" style="stop-color:#DADDDD;stop-opacity:0.879"/>
	<stop  offset="0.964" style="stop-color:#C4CAC9;stop-opacity:0.964"/>
	<stop  offset="1" style="stop-color:#B8BFBE"/>
</radialGradient>
<circle style="fill:url(#SVGID_6_);" cx="256" cy="285.611" r="204.171"/>
<radialGradient id="SVGID_7_" cx="236.9375" cy="254.7575" r="78.47" gradientTransform="matrix(1.0667 0 0 -1.0667 3.2667 557.5334)" gradientUnits="userSpaceOnUse">
	<stop  offset="1.000000e-004" style="stop-color:#FFFFFF;stop-opacity:0"/>
	<stop  offset="0.22" style="stop-color:#FAFBFB;stop-opacity:0.219"/>
	<stop  offset="0.474" style="stop-color:#ECEEEE;stop-opacity:0.473"/>
	<stop  offset="0.744" style="stop-color:#D5D9D9;stop-opacity:0.744"/>
	<stop  offset="1" style="stop-color:#B8BFBE"/>
</radialGradient>
<circle style="fill:url(#SVGID_7_);" cx="256" cy="285.611" r="65.977"/>
<linearGradient id="SVGID_8_" gradientUnits="userSpaceOnUse" x1="334.5669" y1="229.6143" x2="44.8618" y2="286.9944" gradientTransform="matrix(1.0667 0 0 -1.0667 3.2667 557.5334)">
	<stop  offset="0" style="stop-color:#C2CECE;stop-opacity:0"/>
	<stop  offset="0.179" style="stop-color:#AFBCBC;stop-opacity:0.179"/>
	<stop  offset="1" style="stop-color:#5B6A6A"/>
</linearGradient>
<path style="fill:url(#SVGID_8_);" d="M257.112,165.001c-0.358-0.116-0.735-0.175-1.111-0.175c-1.506,0-3.012,0.933-3.346,2.8
	l-14.711,105.297c-2.528,3.591-4.025,7.959-4.025,12.685c0,7.225,3.486,13.619,8.85,17.648c1.257,1.674,2.742,3.158,4.416,4.416
	L384.1,444.588c28.607-23.079,50.865-53.711,63.722-88.878L257.112,165.001z"/>
<linearGradient id="SVGID_9_" gradientUnits="userSpaceOnUse" x1="401.1987" y1="383.3708" x2="-8.5313" y2="209.3109" gradientTransform="matrix(1.0667 0 0 -1.0667 3.2667 557.5334)">
	<stop  offset="0" style="stop-color:#C2CECE"/>
	<stop  offset="1" style="stop-color:#97AAAA"/>
</linearGradient>
<path style="fill:url(#SVGID_9_);" d="M252.654,167.626l-14.839,106.209H256h18.186l-14.839-106.209
	C258.677,163.892,253.323,163.892,252.654,167.626z"/>
<linearGradient id="SVGID_10_" gradientUnits="userSpaceOnUse" x1="304" y1="402.7388" x2="277.25" y2="363.5888" gradientTransform="matrix(1.0667 0 0 -1.0667 3.2667 557.5334)">
	<stop  offset="0" style="stop-color:#C2CECE"/>
	<stop  offset="1" style="stop-color:#97AAAA"/>
</linearGradient>
<path style="fill:url(#SVGID_10_);" d="M274.186,273.835l-14.839-106.209c-0.335-1.867-1.84-2.8-3.346-2.8v109.009H274.186z"/>
<linearGradient id="SVGID_11_" gradientUnits="userSpaceOnUse" x1="236.9375" y1="275.4775" x2="236.9375" y2="205.5375" gradientTransform="matrix(1.0667 0 0 -1.0667 3.2667 557.5334)">
	<stop  offset="0" style="stop-color:#5B6A6A"/>
	<stop  offset="1" style="stop-color:#303033"/>
</linearGradient>
<circle style="fill:url(#SVGID_11_);" cx="256" cy="285.611" r="22.082"/>
<g>
	<path style="fill:#5B6A6A;" d="M256.729,98.129h-1.456c-5.902,0-10.686,4.784-10.686,10.685v13.293
		c0,5.902,4.784,10.686,10.686,10.686h1.456c5.902,0,10.685-4.784,10.685-10.686v-13.293
		C267.413,102.913,262.629,98.129,256.729,98.129z"/>
	<path style="fill:#5B6A6A;" d="M256.729,438.421h-1.456c-5.902,0-10.686,4.784-10.686,10.686V462.4
		c0,5.902,4.784,10.685,10.686,10.685h1.456c5.902,0,10.685-4.784,10.685-10.685v-13.293
		C267.413,443.205,262.629,438.421,256.729,438.421z"/>
	<path style="fill:#5B6A6A;" d="M432.793,274.193H419.5c-5.902,0-10.686,4.784-10.686,10.686v1.456
		c0,5.902,4.784,10.686,10.686,10.686h13.293c5.902,0,10.685-4.784,10.685-10.686v-1.456
		C443.477,278.977,438.693,274.193,432.793,274.193z"/>
	<path style="fill:#5B6A6A;" d="M103.186,286.335v-1.456c0-5.902-4.784-10.686-10.686-10.686H79.207
		c-5.902,0-10.686,4.784-10.686,10.686v1.456c0,5.902,4.784,10.686,10.686,10.686H92.5
		C98.402,297.021,103.186,292.237,103.186,286.335z"/>
	<path style="fill:#5B6A6A;" d="M107.372,219.236l-21.06-8.02c-1.812-0.689-3.823,0.224-4.529,2.031
		c-0.69,1.811,0.22,3.839,2.031,4.529l21.06,8.02c1.775,0.676,3.758-0.183,4.485-1.923c0.015-0.035,0.029-0.071,0.044-0.108
		C110.093,221.954,109.184,219.926,107.372,219.236z"/>
	<path style="fill:#5B6A6A;" d="M428.185,353.438l-21.06-8.02c-1.812-0.689-3.823,0.224-4.529,2.031
		c-0.689,1.811,0.22,3.839,2.031,4.529l21.06,8.02c1.775,0.676,3.758-0.183,4.485-1.923c0.015-0.035,0.029-0.071,0.043-0.108
		C430.906,356.156,429.997,354.128,428.185,353.438z"/>
	<path style="fill:#5B6A6A;" d="M328.361,111.39c-1.811-0.689-3.839,0.22-4.529,2.031l-8.02,21.06
		c-0.676,1.775,0.185,3.758,1.923,4.485c0.035,0.015,0.071,0.029,0.108,0.043c1.811,0.689,3.839-0.22,4.529-2.031l8.02-21.06
		C331.081,114.108,330.168,112.097,328.361,111.39z"/>
	<path style="fill:#5B6A6A;" d="M194.158,432.203c-1.811-0.689-3.839,0.22-4.529,2.031l-8.02,21.06
		c-0.676,1.776,0.183,3.758,1.923,4.485c0.035,0.015,0.071,0.029,0.108,0.043c1.811,0.69,3.839-0.22,4.529-2.031l8.02-21.06
		C196.879,434.921,195.966,432.91,194.158,432.203z"/>
	<path style="fill:#5B6A6A;" d="M142.874,397.488c-1.411-1.329-3.632-1.263-4.961,0.148l-15.453,16.402
		c-1.329,1.411-1.252,3.618,0.148,4.961c1.411,1.329,3.632,1.263,4.961-0.148l15.453-16.402c1.302-1.383,1.265-3.543-0.065-4.88
		C142.929,397.541,142.901,397.515,142.874,397.488z"/>
	<path style="fill:#5B6A6A;" d="M389.393,152.214c-1.411-1.329-3.632-1.263-4.961,0.148l-15.453,16.402
		c-1.329,1.411-1.252,3.618,0.148,4.961c1.411,1.329,3.632,1.263,4.961-0.148l15.453-16.402c1.302-1.383,1.265-3.543-0.065-4.88
		C389.449,152.268,389.421,152.241,389.393,152.214z"/>
	<path style="fill:#5B6A6A;" d="M127.568,152.065c-1.411-1.329-3.618-1.252-4.961,0.148c-1.329,1.411-1.263,3.632,0.148,4.961
		l16.402,15.453c1.383,1.302,3.543,1.265,4.88-0.065c0.027-0.027,0.054-0.054,0.081-0.083c1.329-1.411,1.263-3.632-0.148-4.961
		L127.568,152.065z"/>
	<path style="fill:#5B6A6A;" d="M372.842,398.585c-1.411-1.329-3.618-1.252-4.961,0.148c-1.329,1.411-1.263,3.632,0.148,4.961
		l16.402,15.453c1.383,1.302,3.543,1.265,4.88-0.065c0.027-0.027,0.054-0.054,0.081-0.083c1.329-1.411,1.263-3.632-0.148-4.961
		L372.842,398.585z"/>
	<path style="fill:#5B6A6A;" d="M108.611,345.537c-0.794-1.769-2.869-2.559-4.639-1.766l-20.563,9.22
		c-1.769,0.794-2.545,2.861-1.766,4.639c0.794,1.769,2.869,2.559,4.639,1.766l20.563-9.22c1.733-0.778,2.527-2.787,1.812-4.532
		C108.643,345.609,108.627,345.573,108.611,345.537z"/>
	<path style="fill:#5B6A6A;" d="M408.027,227.443l20.563-9.22c1.733-0.778,2.527-2.787,1.811-4.532
		c-0.015-0.035-0.03-0.071-0.046-0.107c-0.794-1.769-2.869-2.559-4.639-1.766l-20.563,9.22c-1.769,0.794-2.545,2.861-1.766,4.639
		C404.181,227.445,406.257,228.236,408.027,227.443z"/>
	<path style="fill:#5B6A6A;" d="M188.615,113.017c-0.794-1.769-2.861-2.545-4.639-1.766c-1.769,0.794-2.559,2.869-1.766,4.639
		l9.22,20.563c0.778,1.733,2.787,2.527,4.532,1.812c0.035-0.015,0.071-0.03,0.107-0.046c1.769-0.794,2.559-2.869,1.766-4.639
		L188.615,113.017z"/>
	<path style="fill:#5B6A6A;" d="M320.57,434.761c-0.794-1.769-2.861-2.545-4.639-1.766c-1.769,0.794-2.559,2.869-1.766,4.639
		l9.22,20.563c0.778,1.733,2.787,2.527,4.532,1.812c0.035-0.015,0.071-0.03,0.107-0.046c1.769-0.794,2.559-2.869,1.766-4.639
		L320.57,434.761z"/>
</g>
<linearGradient id="SVGID_12_" gradientUnits="userSpaceOnUse" x1="236.937" y1="525.5285" x2="236.937" y2="472.7195" gradientTransform="matrix(1.0667 0 0 -1.0667 3.2667 557.5334)">
	<stop  offset="0" style="stop-color:#FFC200"/>
	<stop  offset="0.268" style="stop-color:#FFBB00"/>
	<stop  offset="0.659" style="stop-color:#FFA801"/>
	<stop  offset="1" style="stop-color:#FF9102"/>
</linearGradient>
<path style="fill:url(#SVGID_12_);" d="M293.451,46.763h-74.901c-11.874,0-21.5-9.626-21.5-21.5V21.5c0-11.874,9.626-21.5,21.5-21.5
	h74.9c11.874,0,21.5,9.626,21.5,21.5v3.763C314.95,37.137,305.325,46.763,293.451,46.763z"/>
<linearGradient id="SVGID_13_" gradientUnits="userSpaceOnUse" x1="236.9375" y1="454.4875" x2="236.9375" y2="564.2965" gradientTransform="matrix(1.0667 0 0 -1.0667 3.2667 557.5334)">
	<stop  offset="0" style="stop-color:#FFC200"/>
	<stop  offset="0.268" style="stop-color:#FFBB00"/>
	<stop  offset="0.659" style="stop-color:#FFA801"/>
	<stop  offset="1" style="stop-color:#FF9102"/>
</linearGradient>
<path style="fill:url(#SVGID_13_);" d="M279.59,46.763H232.41c-9.983,0-18.075-8.093-18.075-18.075V18.076
	C214.334,8.093,222.427,0,232.41,0h47.181c9.983,0,18.075,8.093,18.075,18.075v10.612C297.666,38.67,289.573,46.763,279.59,46.763z"
	/>
<linearGradient id="SVGID_14_" gradientUnits="userSpaceOnUse" x1="236.9375" y1="525.5285" x2="236.9375" y2="472.7195" gradientTransform="matrix(1.0667 0 0 -1.0667 3.2667 557.5334)">
	<stop  offset="0" style="stop-color:#FFC200"/>
	<stop  offset="0.268" style="stop-color:#FFBB00"/>
	<stop  offset="0.659" style="stop-color:#FFA801"/>
	<stop  offset="1" style="stop-color:#FF9102"/>
</linearGradient>
<path style="fill:url(#SVGID_14_);" d="M262.244,46.763h-12.489c-6.595,0-11.941-5.346-11.941-11.941v-22.88
	C237.814,5.346,243.161,0,249.756,0h12.489c6.595,0,11.941,5.346,11.941,11.941v22.88C274.186,41.417,268.839,46.763,262.244,46.763
	z"/>
<g>
</g>
<g>
</g>
<g>
</g>
<g>
</g>
<g>
</g>
<g>
</g>
<g>
</g>
<g>
</g>
<g>
</g>
<g>
</g>
<g>
</g>
<g>
</g>
<g>
</g>
<g>
</g>
<g>
</g>
</svg>
