<?xml version="1.0" encoding="iso-8859-1"?>
<!-- Generator: Adobe Illustrator 21.0.0, SVG Export Plug-In . SVG Version: 6.00 Build 0)  -->
<svg version="1.1" id="Capa_1" xmlns="http://www.w3.org/2000/svg" xmlns:xlink="http://www.w3.org/1999/xlink" x="0px" y="0px"
	 viewBox="0 0 512.001 512.001" style="enable-background:new 0 0 512.001 512.001;" xml:space="preserve">
<linearGradient id="SVGID_1_" gradientUnits="userSpaceOnUse" x1="380.032" y1="137.6735" x2="462.292" y2="55.4135" gradientTransform="matrix(1.0429 0 0 -1.0429 2.1044 542.0439)">
	<stop  offset="0" style="stop-color:#3B4041"/>
	<stop  offset="0.373" style="stop-color:#6F7273"/>
	<stop  offset="1" style="stop-color:#C3C3C3"/>
</linearGradient>
<path style="fill:url(#SVGID_1_);" d="M482.653,477.028H46.037c-16.2,0-29.347-13.147-29.347-29.347V81.01
	c0-16.2,13.147-29.347,29.347-29.347h436.616c16.2,0,29.347,13.147,29.347,29.347V447.68
	C512,463.881,498.853,477.028,482.653,477.028z"/>
<linearGradient id="SVGID_2_" gradientUnits="userSpaceOnUse" x1="243.4408" y1="136.9437" x2="243.4408" y2="-15.9363" gradientTransform="matrix(1.0429 0 0 -1.0429 2.1044 542.0439)">
	<stop  offset="0" style="stop-color:#F2F2F2"/>
	<stop  offset="1" style="stop-color:#C3C3C3"/>
</linearGradient>
<path style="fill:url(#SVGID_2_);" d="M512,329.291V64.321c0-16.208-13.139-29.347-29.347-29.347H29.347
	C13.139,34.973,0,48.112,0,64.321v383.36c0,16.208,13.139,29.347,29.347,29.347h342.601c4.491,0,8.801-1.767,12.001-4.919
	l116.19-114.482C507.728,350.15,512,339.943,512,329.291z"/>
<linearGradient id="SVGID_3_" gradientUnits="userSpaceOnUse" x1="243.4408" y1="334.7037" x2="243.4408" y2="111.2837" gradientTransform="matrix(1.0429 0 0 -1.0429 2.1044 542.0439)">
	<stop  offset="0" style="stop-color:#C3C3C3;stop-opacity:0"/>
	<stop  offset="1" style="stop-color:#777777"/>
</linearGradient>
<path style="fill:url(#SVGID_3_);" d="M512,256.001V61.3c0-14.541-13.139-26.327-29.347-26.327h-56.738H29.347
	C13.139,34.973,0,46.759,0,61.3v194.7H512z"/>
<linearGradient id="SVGID_4_" gradientUnits="userSpaceOnUse" x1="381.6877" y1="304.0231" x2="216.0178" y2="80.6031" gradientTransform="matrix(1.0429 0 0 -1.0429 2.1044 542.0439)">
	<stop  offset="0" style="stop-color:#C3C3C3;stop-opacity:0"/>
	<stop  offset="1" style="stop-color:#777777"/>
</linearGradient>
<path style="fill:url(#SVGID_4_);" d="M256.36,477.028h228.944c14.744,0,26.695-13.139,26.695-29.347v-56.738V64.321
	c0-16.208-11.952-29.347-26.695-29.347H256.36C254.739,34.973,256.36,477.028,256.36,477.028z"/>
<g>
	<rect x="37.234" y="127.396" style="fill:#777777;" width="19.983" height="257.211"/>
	<rect x="78.993" y="127.396" style="fill:#777777;" width="32.078" height="213.721"/>
	<rect x="120.742" y="127.396" style="fill:#777777;" width="19.983" height="213.721"/>
	<rect x="170.793" y="127.396" style="fill:#777777;" width="22.121" height="213.721"/>
	<rect x="152.541" y="127.396" style="fill:#777777;" width="11.686" height="213.721"/>
	<rect x="271.448" y="127.396" style="fill:#777777;" width="11.686" height="213.721"/>
	<rect x="340.063" y="127.396" style="fill:#777777;" width="11.686" height="213.721"/>
	<rect x="356.875" y="127.396" style="fill:#777777;" width="11.686" height="213.721"/>
	<rect x="438.507" y="127.396" style="fill:#777777;" width="11.686" height="213.721"/>
	<rect x="204.251" y="127.396" style="fill:#777777;" width="19.983" height="213.721"/>
	<rect x="232.744" y="127.396" style="fill:#777777;" width="33.253" height="213.721"/>
	<rect x="287.759" y="127.396" style="fill:#777777;" width="19.983" height="213.721"/>
	<rect x="314.907" y="127.396" style="fill:#777777;" width="19.983" height="213.721"/>
	<rect x="374.084" y="127.396" style="fill:#777777;" width="31.633" height="213.721"/>
	<rect x="413.028" y="127.396" style="fill:#777777;" width="19.983" height="213.721"/>
	<rect x="454.787" y="127.396" style="fill:#777777;" width="19.983" height="257.211"/>
</g>
<rect x="77.804" y="364.624" style="fill:#C3C3C3;" width="356.385" height="19.983"/>
<linearGradient id="SVGID_5_" gradientUnits="userSpaceOnUse" x1="407.4661" y1="151.9975" x2="441.066" y2="118.3975" gradientTransform="matrix(1.0429 0 0 -1.0429 2.1044 542.0439)">
	<stop  offset="0" style="stop-color:#F2F2F2"/>
	<stop  offset="1" style="stop-color:#C3C3C3"/>
</linearGradient>
<path style="fill:url(#SVGID_5_);" d="M378.958,475.525c0,0,2.456-0.867,5.87-4.281c1.268-1.268,114.63-112.945,114.63-112.945
	c8.024-7.907,12.544-18.702,12.544-29.967l0,0l0,0c0,9.725-7.884,17.608-17.608,17.608h-86.087
	c-16.208,0-29.347,13.139-29.347,29.347v100.238H378.958z"/>
<g>
</g>
<g>
</g>
<g>
</g>
<g>
</g>
<g>
</g>
<g>
</g>
<g>
</g>
<g>
</g>
<g>
</g>
<g>
</g>
<g>
</g>
<g>
</g>
<g>
</g>
<g>
</g>
<g>
</g>
</svg>
