<?xml version="1.0"?>
<svg xmlns="http://www.w3.org/2000/svg" width="512" height="512" viewBox="0 0 512 512"><g><path d="M152,456H96a8,8,0,0,0,0,16h56a8,8,0,0,0,0-16Z"/><path d="M184,456h-8a8,8,0,0,0,0,16h8a8,8,0,0,0,0-16Z"/><path d="M356,128a108.925,108.925,0,0,0-20,1.86V48A40.04,40.04,0,0,0,296,8H88A40.04,40.04,0,0,0,48,48V464a40.04,40.04,0,0,0,40,40H296a40.04,40.04,0,0,0,40-40V344s22.91-.03,24.31-.1A107.993,107.993,0,0,0,356,128ZM246.24,24l-4.8,24H142.56l-4.8-24ZM320,464a24.032,24.032,0,0,1-24,24H88a24.032,24.032,0,0,1-24-24V48A24.032,24.032,0,0,1,88,24h33.44l6.72,33.57A7.99,7.99,0,0,0,136,64H248a7.99,7.99,0,0,0,7.84-6.43L262.56,24H296a24.032,24.032,0,0,1,24,24v86.18A108.188,108.188,0,0,0,248,236a106.851,106.851,0,0,0,25.85,70.13l-45.43,22.71A8,8,0,0,0,232,344h88ZM422.26,299.83a91.56,91.56,0,0,1-62.62,28.09c-1.21.05-93.75.08-93.75.08l24.77-12.38a8.009,8.009,0,0,0,1.93-12.96,92,92,0,1,1,129.67-2.83Z"/><path d="M360,208a24,24,0,1,0,24,24A24.028,24.028,0,0,0,360,208Zm0,32a8,8,0,1,1,8-8A8.009,8.009,0,0,1,360,240Z"/><path d="M304,208a24,24,0,1,0,24,24A24.028,24.028,0,0,0,304,208Zm0,32a8,8,0,1,1,8-8A8.009,8.009,0,0,1,304,240Z"/><path d="M416,208a24,24,0,1,0,24,24A24.028,24.028,0,0,0,416,208Zm0,32a8,8,0,1,1,8-8A8.009,8.009,0,0,1,416,240Z"/></g></svg>
